<?xml version="1.0" encoding="UTF-8"?>
<svg xmlns="http://www.w3.org/2000/svg" xmlns:xlink="http://www.w3.org/1999/xlink" width="432pt" height="360pt" viewBox="0 0 432 360" version="1.1">
<g id="surface29">
<rect x="0" y="0" width="432" height="360" style="fill:rgb(100%,100%,100%);fill-opacity:1;stroke:none;"/>
<path style="fill:none;stroke-width:4.267913;stroke-linecap:butt;stroke-linejoin:round;stroke:rgb(0%,0%,0%);stroke-opacity:1;stroke-miterlimit:1;" d="M 42.511719 316.089844 L 42.515625 316.101562 L 42.550781 316.183594 L 42.585938 316.269531 L 42.640625 316.390625 L 42.710938 316.558594 L 42.800781 316.773438 L 42.914062 317.039062 L 43.054688 317.363281 L 43.21875 317.742188 L 43.410156 318.183594 L 43.875 319.246094 L 44.148438 319.867188 L 44.453125 320.546875 L 44.78125 321.28125 L 45.140625 322.066406 L 45.523438 322.902344 L 45.933594 323.78125 L 46.363281 324.699219 L 46.816406 325.648438 L 47.289062 326.621094 L 47.777344 327.617188 L 48.28125 328.621094 L 48.796875 329.628906 L 49.324219 330.632812 L 49.855469 331.628906 L 50.398438 332.601562 L 50.9375 333.554688 L 51.484375 334.46875 L 52.027344 335.347656 L 52.566406 336.183594 L 53.101562 336.964844 L 53.632812 337.6875 L 54.160156 338.351562 L 54.675781 338.953125 L 55.183594 339.480469 L 55.683594 339.933594 L 56.175781 340.3125 L 56.660156 340.613281 L 57.132812 340.832031 L 57.601562 340.96875 L 58.0625 341.019531 L 58.515625 340.988281 L 58.96875 340.867188 L 59.417969 340.660156 L 59.863281 340.367188 L 60.3125 339.988281 L 60.769531 339.523438 L 61.226562 338.972656 L 61.699219 338.335938 L 62.179688 337.613281 L 62.679688 336.8125 L 62.773438 336.65625 L 63.308594 335.734375 L 63.875 334.703125 L 64.484375 333.53125 L 65.140625 332.203125 L 65.855469 330.691406 L 66.632812 328.984375 L 67.476562 327.0625 L 68.390625 324.917969 L 69.378906 322.542969 L 70.445312 319.925781 L 71.59375 317.066406 L 72.820312 313.960938 L 74.125 310.613281 L 75.511719 307.023438 L 76.972656 303.203125 L 78.507812 299.15625 L 80.113281 294.894531 L 81.789062 290.429688 L 83.527344 285.777344 L 85.320312 280.960938 L 87.164062 275.988281 L 89.054688 270.890625 L 90.980469 265.683594 L 92.9375 260.394531 L 94.917969 255.042969 L 96.910156 249.65625 L 98.914062 244.261719 L 100.914062 238.882812 L 102.902344 233.542969 L 104.875 228.273438 L 106.824219 223.089844 L 108.738281 218.023438 L 110.613281 213.09375 L 112.445312 208.320312 L 114.222656 203.726562 L 115.945312 199.328125 L 117.605469 195.140625 L 119.199219 191.179688 L 120.722656 187.453125 L 122.175781 183.976562 L 123.554688 180.753906 L 124.863281 177.792969 L 126.09375 175.089844 L 127.253906 172.648438 L 128.339844 170.46875 L 129.359375 168.539062 L 130.316406 166.859375 L 131.210938 165.414062 L 132.050781 164.195312 L 132.839844 163.1875 L 133.589844 162.367188 L 134.308594 161.722656 L 135.003906 161.222656 L 135.128906 161.144531 L 135.8125 160.796875 L 136.492188 160.582031 L 137.175781 160.511719 L 137.871094 160.601562 L 138.582031 160.859375 L 139.3125 161.292969 L 140.066406 161.910156 L 140.847656 162.714844 L 141.660156 163.714844 L 142.503906 164.90625 L 143.382812 166.296875 L 144.300781 167.882812 L 145.25 169.664062 L 146.238281 171.628906 L 147.257812 173.78125 L 148.316406 176.105469 L 149.40625 178.597656 L 150.527344 181.25 L 151.679688 184.046875 L 152.855469 186.972656 L 154.058594 190.023438 L 155.277344 193.175781 L 156.515625 196.417969 L 157.765625 199.730469 L 159.023438 203.097656 L 160.285156 206.5 L 161.546875 209.925781 L 162.804688 213.351562 L 164.050781 216.761719 L 165.285156 220.136719 L 166.503906 223.460938 L 167.699219 226.71875 L 168.867188 229.894531 L 170.007812 232.972656 L 171.117188 235.9375 L 172.191406 238.78125 L 173.226562 241.492188 L 174.222656 244.058594 L 175.179688 246.472656 L 176.089844 248.730469 L 176.957031 250.824219 L 177.777344 252.75 L 178.554688 254.511719 L 179.289062 256.105469 L 179.980469 257.535156 L 180.628906 258.804688 L 181.238281 259.917969 L 181.8125 260.882812 L 182.351562 261.710938 L 182.859375 262.410156 L 183.34375 262.996094 L 183.804688 263.480469 L 184.25 263.882812 L 184.332031 263.949219 L 184.765625 264.273438 L 185.195312 264.535156 L 185.625 264.722656 L 186.058594 264.835938 L 186.496094 264.867188 L 186.941406 264.816406 L 187.398438 264.683594 L 187.867188 264.460938 L 188.351562 264.148438 L 188.851562 263.75 L 189.371094 263.261719 L 189.902344 262.683594 L 190.457031 262.019531 L 191.027344 261.269531 L 191.613281 260.4375 L 192.222656 259.527344 L 192.84375 258.542969 L 193.480469 257.488281 L 194.136719 256.367188 L 194.800781 255.183594 L 195.480469 253.949219 L 196.167969 252.667969 L 196.867188 251.347656 L 197.566406 249.992188 L 198.273438 248.613281 L 198.984375 247.21875 L 199.691406 245.808594 L 200.398438 244.402344 L 201.097656 243 L 201.789062 241.613281 L 202.472656 240.246094 L 203.144531 238.90625 L 203.804688 237.601562 L 204.445312 236.339844 L 205.070312 235.125 L 205.675781 233.964844 L 206.265625 232.859375 L 206.828125 231.820312 L 207.371094 230.84375 L 207.890625 229.933594 L 208.390625 229.097656 L 208.863281 228.332031 L 209.3125 227.640625 L 209.738281 227.019531 L 210.144531 226.46875 L 210.527344 225.992188 L 210.890625 225.582031 L 211.234375 225.234375 L 211.558594 224.949219 L 211.871094 224.722656 L 212.167969 224.542969 L 212.457031 224.410156 L 212.738281 224.3125 L 212.789062 224.300781 L 213.066406 224.238281 L 213.339844 224.214844 L 213.617188 224.226562 L 213.898438 224.277344 L 214.183594 224.378906 L 214.476562 224.527344 L 214.777344 224.726562 L 215.085938 224.980469 L 215.410156 225.289062 L 215.738281 225.652344 L 216.082031 226.070312 L 216.4375 226.546875 L 216.808594 227.082031 L 217.1875 227.667969 L 217.582031 228.304688 L 217.984375 228.996094 L 218.402344 229.734375 L 218.828125 230.515625 L 219.269531 231.339844 L 219.714844 232.203125 L 220.171875 233.097656 L 220.636719 234.019531 L 221.105469 234.964844 L 221.582031 235.929688 L 222.0625 236.90625 L 222.546875 237.890625 L 223.03125 238.878906 L 223.515625 239.859375 L 224 240.828125 L 224.480469 241.785156 L 224.957031 242.71875 L 225.429688 243.625 L 225.894531 244.5 L 226.355469 245.335938 L 226.808594 246.132812 L 227.25 246.886719 L 227.683594 247.585938 L 228.109375 248.234375 L 228.523438 248.828125 L 228.925781 249.363281 L 229.320312 249.839844 L 229.703125 250.253906 L 230.074219 250.605469 L 230.4375 250.890625 L 230.792969 251.117188 L 231.140625 251.277344 L 231.480469 251.378906 L 231.816406 251.417969 L 232.148438 251.398438 L 232.476562 251.320312 L 232.804688 251.191406 L 233.136719 251.011719 L 233.46875 250.78125 L 233.53125 250.738281 L 233.878906 250.457031 L 234.234375 250.121094 L 234.609375 249.71875 L 235.007812 249.238281 L 235.429688 248.671875 L 235.878906 248.011719 L 236.359375 247.246094 L 236.875 246.378906 L 237.421875 245.394531 L 238.007812 244.300781 L 238.628906 243.089844 L 239.285156 241.761719 L 239.980469 240.320312 L 240.714844 238.761719 L 241.484375 237.09375 L 242.289062 235.320312 L 243.125 233.445312 L 243.996094 231.476562 L 244.894531 229.417969 L 245.820312 227.285156 L 246.773438 225.078125 L 247.746094 222.816406 L 248.738281 220.5 L 249.742188 218.152344 L 250.761719 215.773438 L 252.816406 210.992188 L 253.847656 208.613281 L 254.875 206.257812 L 255.894531 203.933594 L 256.90625 201.664062 L 257.902344 199.449219 L 258.882812 197.304688 L 259.839844 195.242188 L 260.78125 193.273438 L 261.691406 191.402344 L 262.578125 189.636719 L 263.4375 187.988281 L 264.265625 186.464844 L 265.0625 185.0625 L 265.828125 183.792969 L 266.5625 182.65625 L 267.265625 181.65625 L 267.941406 180.789062 L 268.585938 180.0625 L 269.203125 179.464844 L 269.792969 179.003906 L 270.363281 178.667969 L 270.910156 178.457031 L 271.445312 178.367188 L 271.964844 178.382812 L 272.480469 178.503906 L 272.992188 178.71875 L 273.085938 178.769531 L 273.605469 179.085938 L 274.136719 179.503906 L 274.683594 180.046875 L 275.253906 180.722656 L 275.855469 181.554688 L 276.488281 182.546875 L 277.15625 183.710938 L 277.863281 185.0625 L 278.609375 186.597656 L 279.402344 188.328125 L 280.238281 190.253906 L 281.121094 192.371094 L 282.050781 194.6875 L 283.023438 197.191406 L 284.039062 199.882812 L 285.101562 202.75 L 286.203125 205.789062 L 287.34375 208.988281 L 288.523438 212.332031 L 289.734375 215.808594 L 290.976562 219.40625 L 292.242188 223.101562 L 293.53125 226.882812 L 294.839844 230.734375 L 296.160156 234.628906 L 297.492188 238.550781 L 298.824219 242.484375 L 300.15625 246.402344 L 301.484375 250.289062 L 302.804688 254.121094 L 304.109375 257.882812 L 305.394531 261.558594 L 306.65625 265.125 L 307.890625 268.566406 L 309.097656 271.867188 L 310.273438 275.011719 L 311.410156 277.992188 L 312.511719 280.796875 L 313.570312 283.410156 L 314.59375 285.832031 L 315.570312 288.046875 L 316.507812 290.058594 L 317.402344 291.863281 L 318.261719 293.457031 L 319.078125 294.84375 L 319.855469 296.023438 L 320.601562 297.007812 L 321.316406 297.796875 L 322.003906 298.402344 L 322.671875 298.832031 L 323.316406 299.101562 L 323.953125 299.226562 L 324.585938 299.21875 L 324.699219 299.203125 L 325.335938 299.058594 L 325.980469 298.785156 L 326.648438 298.359375 L 327.347656 297.769531 L 328.078125 296.996094 L 328.847656 296.03125 L 329.664062 294.863281 L 330.527344 293.484375 L 331.441406 291.886719 L 332.414062 290.0625 L 333.4375 288.019531 L 334.523438 285.746094 L 335.664062 283.253906 L 336.859375 280.542969 L 338.113281 277.617188 L 339.421875 274.488281 L 340.78125 271.164062 L 342.1875 267.660156 L 343.640625 263.984375 L 345.132812 260.15625 L 346.664062 256.1875 L 348.226562 252.105469 L 349.816406 247.917969 L 351.425781 243.65625 L 353.046875 239.332031 L 354.679688 234.972656 L 356.3125 230.59375 L 357.941406 226.226562 L 359.5625 221.882812 L 361.164062 217.59375 L 362.742188 213.371094 L 364.292969 209.242188 L 365.808594 205.226562 L 367.28125 201.335938 L 368.714844 197.589844 L 370.097656 194.007812 L 371.429688 190.597656 L 372.703125 187.375 L 373.921875 184.347656 L 375.078125 181.527344 L 376.175781 178.917969 L 377.207031 176.519531 L 378.175781 174.339844 L 379.085938 172.378906 L 379.933594 170.628906 L 380.71875 169.09375 L 381.453125 167.757812 L 382.132812 166.621094 L 382.761719 165.664062 L 383.347656 164.882812 L 383.898438 164.257812 L 384.414062 163.769531 L 384.90625 163.402344 L 384.992188 163.34375 L 385.464844 163.09375 L 385.925781 162.953125 L 386.382812 162.925781 L 386.835938 163.027344 L 387.292969 163.269531 L 387.753906 163.652344 L 388.222656 164.191406 L 388.703125 164.886719 L 389.195312 165.742188 L 389.703125 166.765625 L 390.226562 167.953125 L 390.765625 169.3125 L 391.324219 170.835938 L 391.902344 172.527344 L 392.5 174.378906 L 393.113281 176.390625 L 393.746094 178.554688 L 394.398438 180.859375 L 395.0625 183.304688 L 395.742188 185.871094 L 396.433594 188.550781 L 397.136719 191.328125 L 397.847656 194.191406 L 398.5625 197.125 L 399.28125 200.105469 L 399.992188 203.121094 L 400.703125 206.148438 L 401.402344 209.175781 L 402.09375 212.175781 L 402.765625 215.128906 L 403.417969 218.019531 L 404.046875 220.832031 L 404.652344 223.542969 L 405.226562 226.136719 L 405.769531 228.601562 L 406.277344 230.921875 L 406.75 233.085938 L 407.183594 235.089844 L 407.582031 236.917969 L 407.9375 238.574219 L 408.257812 240.054688 L 408.535156 241.355469 L 408.777344 242.484375 L 408.980469 243.441406 L 409.152344 244.238281 L 409.289062 244.882812 L 409.394531 245.386719 L 409.472656 245.761719 L 409.527344 246.023438 L 409.5625 246.191406 L 409.582031 246.28125 L 409.589844 246.320312 L 409.59375 246.328125 "/>
<path style="fill:none;stroke-width:3.200935;stroke-linecap:butt;stroke-linejoin:round;stroke:rgb(0%,0%,0%);stroke-opacity:1;stroke-miterlimit:1;" d="M 22.25 271.292969 L 22.253906 271.292969 L 22.253906 271.304688 L 22.265625 271.328125 L 22.28125 271.375 L 22.3125 271.453125 L 22.351562 271.5625 L 22.410156 271.707031 L 22.480469 271.898438 L 22.570312 272.136719 L 22.683594 272.421875 L 22.8125 272.761719 L 22.964844 273.152344 L 23.140625 273.597656 L 23.339844 274.097656 L 23.558594 274.648438 L 23.804688 275.257812 L 24.070312 275.914062 L 24.359375 276.617188 L 24.667969 277.367188 L 25 278.15625 L 25.351562 278.980469 L 25.71875 279.835938 L 26.105469 280.714844 L 26.507812 281.613281 L 26.921875 282.523438 L 27.347656 283.4375 L 27.78125 284.355469 L 28.226562 285.261719 L 28.675781 286.15625 L 29.132812 287.03125 L 29.589844 287.878906 L 30.046875 288.691406 L 30.507812 289.46875 L 30.964844 290.199219 L 31.421875 290.882812 L 31.871094 291.511719 L 32.320312 292.082031 L 32.761719 292.589844 L 33.203125 293.03125 L 33.632812 293.410156 L 34.0625 293.710938 L 34.484375 293.945312 L 34.902344 294.101562 L 35.316406 294.179688 L 35.730469 294.179688 L 36.136719 294.101562 L 36.546875 293.945312 L 36.957031 293.707031 L 37.367188 293.390625 L 37.785156 292.992188 L 38.207031 292.511719 L 38.636719 291.953125 L 39.082031 291.316406 L 39.539062 290.597656 L 40.011719 289.804688 L 40.101562 289.652344 L 40.621094 288.726562 L 41.171875 287.691406 L 41.765625 286.523438 L 42.410156 285.195312 L 43.109375 283.6875 L 43.871094 281.980469 L 44.703125 280.066406 L 45.605469 277.929688 L 46.582031 275.5625 L 47.636719 272.953125 L 48.769531 270.105469 L 49.984375 267.011719 L 51.277344 263.679688 L 52.648438 260.105469 L 54.097656 256.300781 L 55.621094 252.269531 L 57.21875 248.023438 L 58.878906 243.582031 L 60.605469 238.949219 L 62.386719 234.152344 L 64.21875 229.207031 L 66.09375 224.132812 L 68.007812 218.949219 L 69.953125 213.6875 L 71.921875 208.363281 L 73.90625 203.003906 L 75.894531 197.636719 L 77.882812 192.285156 L 79.859375 186.976562 L 81.824219 181.734375 L 83.761719 176.585938 L 85.664062 171.550781 L 87.53125 166.652344 L 89.351562 161.914062 L 91.121094 157.355469 L 92.835938 152.992188 L 94.488281 148.839844 L 96.074219 144.914062 L 97.59375 141.226562 L 99.039062 137.789062 L 100.414062 134.605469 L 101.714844 131.683594 L 102.945312 129.023438 L 104.097656 126.625 L 105.183594 124.488281 L 106.203125 122.609375 L 107.15625 120.976562 L 108.046875 119.582031 L 108.886719 118.414062 L 109.679688 117.460938 L 110.429688 116.699219 L 111.152344 116.113281 L 111.847656 115.679688 L 111.972656 115.613281 L 112.660156 115.335938 L 113.34375 115.195312 L 114.03125 115.207031 L 114.730469 115.390625 L 115.449219 115.753906 L 116.1875 116.308594 L 116.953125 117.0625 L 117.746094 118.023438 L 118.570312 119.191406 L 119.429688 120.574219 L 120.324219 122.171875 L 121.253906 123.984375 L 122.226562 126.007812 L 123.230469 128.234375 L 124.277344 130.664062 L 125.355469 133.289062 L 126.46875 136.09375 L 127.617188 139.074219 L 128.796875 142.210938 L 130 145.492188 L 131.230469 148.90625 L 132.480469 152.433594 L 133.746094 156.054688 L 135.027344 159.75 L 136.316406 163.507812 L 137.609375 167.300781 L 140.1875 174.917969 L 141.46875 178.703125 L 142.730469 182.445312 L 143.980469 186.128906 L 145.203125 189.730469 L 146.402344 193.234375 L 147.570312 196.621094 L 148.707031 199.882812 L 149.804688 202.996094 L 150.863281 205.957031 L 151.882812 208.75 L 152.859375 211.367188 L 153.789062 213.796875 L 154.671875 216.039062 L 155.511719 218.089844 L 156.304688 219.945312 L 157.050781 221.601562 L 157.753906 223.066406 L 158.410156 224.339844 L 159.03125 225.429688 L 159.609375 226.34375 L 160.152344 227.09375 L 160.667969 227.683594 L 161.152344 228.136719 L 161.617188 228.460938 L 162.0625 228.675781 L 162.144531 228.707031 L 162.578125 228.816406 L 163.003906 228.828125 L 163.433594 228.726562 L 163.859375 228.507812 L 164.292969 228.160156 L 164.734375 227.675781 L 165.183594 227.046875 L 165.644531 226.269531 L 166.117188 225.335938 L 166.605469 224.253906 L 167.109375 223.011719 L 167.628906 221.613281 L 168.164062 220.0625 L 168.71875 218.363281 L 169.285156 216.515625 L 169.871094 214.527344 L 170.472656 212.40625 L 171.085938 210.160156 L 171.714844 207.796875 L 172.355469 205.324219 L 173.007812 202.761719 L 173.671875 200.117188 L 174.339844 197.402344 L 175.015625 194.628906 L 175.691406 191.816406 L 176.371094 188.976562 L 177.050781 186.125 L 177.726562 183.277344 L 178.398438 180.445312 L 179.0625 177.644531 L 179.714844 174.894531 L 180.359375 172.199219 L 180.988281 169.578125 L 181.605469 167.042969 L 182.203125 164.605469 L 182.785156 162.269531 L 183.347656 160.054688 L 183.890625 157.960938 L 184.410156 156 L 184.910156 154.171875 L 185.386719 152.484375 L 185.84375 150.945312 L 186.273438 149.546875 L 186.6875 148.292969 L 187.074219 147.183594 L 187.445312 146.210938 L 187.792969 145.378906 L 188.125 144.675781 L 188.441406 144.097656 L 188.742188 143.628906 L 189.03125 143.269531 L 189.308594 143.003906 L 189.582031 142.816406 L 189.632812 142.789062 L 189.898438 142.679688 L 190.167969 142.644531 L 190.4375 142.695312 L 190.710938 142.835938 L 190.988281 143.074219 L 191.273438 143.417969 L 191.566406 143.875 L 191.871094 144.445312 L 192.183594 145.136719 L 192.507812 145.945312 L 192.84375 146.875 L 193.191406 147.925781 L 193.550781 149.097656 L 193.921875 150.382812 L 194.308594 151.785156 L 194.707031 153.296875 L 195.113281 154.910156 L 195.535156 156.621094 L 195.964844 158.421875 L 196.402344 160.304688 L 196.851562 162.257812 L 197.304688 164.273438 L 197.769531 166.34375 L 198.234375 168.449219 L 198.707031 170.589844 L 199.179688 172.742188 L 199.65625 174.902344 L 200.132812 177.058594 L 200.605469 179.191406 L 201.078125 181.296875 L 201.546875 183.359375 L 202.011719 185.371094 L 202.46875 187.316406 L 202.917969 189.1875 L 203.359375 190.976562 L 203.792969 192.671875 L 204.21875 194.269531 L 204.632812 195.761719 L 205.039062 197.140625 L 205.433594 198.398438 L 205.816406 199.539062 L 206.1875 200.554688 L 206.550781 201.445312 L 206.90625 202.207031 L 207.25 202.84375 L 207.585938 203.355469 L 207.914062 203.742188 L 208.238281 204.015625 L 208.558594 204.171875 L 208.875 204.21875 L 209.191406 204.164062 L 209.511719 204.015625 L 209.832031 203.785156 L 209.894531 203.730469 L 210.222656 203.40625 L 210.566406 202.988281 L 210.925781 202.457031 L 211.304688 201.800781 L 211.707031 201.003906 L 212.136719 200.054688 L 212.59375 198.941406 L 213.082031 197.660156 L 213.601562 196.199219 L 214.15625 194.5625 L 214.742188 192.738281 L 215.367188 190.734375 L 216.023438 188.546875 L 216.714844 186.179688 L 217.441406 183.636719 L 218.199219 180.929688 L 218.988281 178.058594 L 219.808594 175.042969 L 220.65625 171.890625 L 221.527344 168.609375 L 222.425781 165.21875 L 223.339844 161.734375 L 224.273438 158.171875 L 225.222656 154.550781 L 226.179688 150.882812 L 227.148438 147.195312 L 228.117188 143.5 L 229.089844 139.820312 L 230.058594 136.171875 L 231.019531 132.578125 L 231.972656 129.050781 L 232.914062 125.617188 L 233.839844 122.285156 L 234.75 119.074219 L 235.636719 116.003906 L 236.503906 113.078125 L 237.34375 110.320312 L 238.160156 107.730469 L 238.949219 105.328125 L 239.707031 103.113281 L 240.441406 101.09375 L 241.144531 99.277344 L 241.820312 97.664062 L 242.46875 96.253906 L 243.089844 95.050781 L 243.691406 94.042969 L 244.265625 93.238281 L 244.820312 92.621094 L 245.359375 92.1875 L 245.886719 91.925781 L 246.402344 91.828125 L 246.914062 91.878906 L 247.425781 92.066406 L 247.519531 92.113281 L 248.039062 92.445312 L 248.570312 92.914062 L 249.125 93.550781 L 249.703125 94.375 L 250.3125 95.398438 L 250.957031 96.640625 L 251.640625 98.117188 L 252.367188 99.832031 L 253.136719 101.796875 L 253.953125 104.019531 L 254.816406 106.496094 L 255.730469 109.234375 L 256.691406 112.226562 L 257.703125 115.46875 L 258.761719 118.957031 L 259.863281 122.679688 L 261.011719 126.625 L 262.199219 130.785156 L 263.429688 135.132812 L 264.691406 139.660156 L 265.988281 144.347656 L 267.3125 149.167969 L 268.65625 154.101562 L 270.023438 159.121094 L 271.402344 164.210938 L 272.792969 169.339844 L 274.1875 174.480469 L 275.582031 179.609375 L 276.96875 184.703125 L 278.347656 189.730469 L 279.710938 194.671875 L 281.054688 199.503906 L 282.371094 204.199219 L 283.664062 208.738281 L 284.921875 213.101562 L 286.144531 217.269531 L 287.332031 221.230469 L 288.480469 224.964844 L 289.582031 228.460938 L 290.644531 231.714844 L 291.660156 234.710938 L 292.636719 237.449219 L 293.5625 239.925781 L 294.449219 242.140625 L 295.292969 244.09375 L 296.097656 245.792969 L 296.867188 247.242188 L 297.601562 248.457031 L 298.308594 249.441406 L 298.988281 250.214844 L 299.652344 250.792969 L 300.300781 251.191406 L 300.941406 251.441406 L 301.058594 251.472656 L 301.707031 251.566406 L 302.363281 251.515625 L 303.039062 251.300781 L 303.742188 250.910156 L 304.480469 250.328125 L 305.257812 249.542969 L 306.082031 248.542969 L 306.949219 247.320312 L 307.867188 245.875 L 308.84375 244.195312 L 309.871094 242.289062 L 310.957031 240.144531 L 312.097656 237.777344 L 313.296875 235.179688 L 314.550781 232.367188 L 315.855469 229.34375 L 317.214844 226.121094 L 318.621094 222.710938 L 320.074219 219.128906 L 321.566406 215.386719 L 323.09375 211.503906 L 324.652344 207.496094 L 326.238281 203.386719 L 327.839844 199.195312 L 329.460938 194.941406 L 331.089844 190.644531 L 332.71875 186.332031 L 334.34375 182.023438 L 335.957031 177.742188 L 337.554688 173.507812 L 339.128906 169.339844 L 340.675781 165.261719 L 342.1875 161.292969 L 343.65625 157.449219 L 345.085938 153.753906 L 346.464844 150.210938 L 347.792969 146.84375 L 349.066406 143.664062 L 350.28125 140.675781 L 351.4375 137.890625 L 352.53125 135.316406 L 353.5625 132.953125 L 354.53125 130.804688 L 355.4375 128.871094 L 356.285156 127.152344 L 357.074219 125.640625 L 357.808594 124.332031 L 358.488281 123.21875 L 359.121094 122.285156 L 359.707031 121.519531 L 360.257812 120.910156 L 360.777344 120.433594 L 361.269531 120.078125 L 361.359375 120.023438 L 361.835938 119.78125 L 362.300781 119.640625 L 362.757812 119.613281 L 363.214844 119.710938 L 363.675781 119.9375 L 364.144531 120.308594 L 364.617188 120.824219 L 365.105469 121.496094 L 365.605469 122.320312 L 366.117188 123.304688 L 366.648438 124.453125 L 367.199219 125.761719 L 367.769531 127.230469 L 368.355469 128.859375 L 368.964844 130.648438 L 369.589844 132.585938 L 370.234375 134.675781 L 370.898438 136.898438 L 371.578125 139.253906 L 372.273438 141.730469 L 372.980469 144.316406 L 373.699219 146.996094 L 374.425781 149.757812 L 375.15625 152.585938 L 375.886719 155.464844 L 376.617188 158.375 L 377.34375 161.296875 L 378.058594 164.214844 L 378.765625 167.109375 L 379.453125 169.957031 L 380.121094 172.75 L 380.765625 175.460938 L 381.382812 178.074219 L 381.972656 180.578125 L 382.527344 182.957031 L 383.046875 185.195312 L 383.53125 187.285156 L 383.976562 189.214844 L 384.382812 190.984375 L 384.75 192.582031 L 385.074219 194.007812 L 385.359375 195.261719 L 385.605469 196.351562 L 385.816406 197.277344 L 385.988281 198.042969 L 386.128906 198.664062 L 386.238281 199.152344 L 386.320312 199.511719 L 386.378906 199.765625 L 386.414062 199.929688 L 386.433594 200.015625 L 386.441406 200.054688 L 386.441406 200.0625 "/>
<path style="fill:none;stroke-width:2.133957;stroke-linecap:butt;stroke-linejoin:round;stroke:rgb(0%,0%,0%);stroke-opacity:1;stroke-miterlimit:1;" d="M 47.335938 239.722656 L 47.339844 239.730469 L 47.347656 239.757812 L 47.367188 239.800781 L 47.394531 239.875 L 47.4375 239.976562 L 47.492188 240.117188 L 47.566406 240.300781 L 47.660156 240.527344 L 47.769531 240.796875 L 47.902344 241.121094 L 48.054688 241.492188 L 48.234375 241.917969 L 48.433594 242.394531 L 48.65625 242.921875 L 48.902344 243.5 L 49.167969 244.125 L 49.460938 244.796875 L 49.773438 245.507812 L 50.109375 246.261719 L 50.460938 247.042969 L 50.832031 247.859375 L 51.222656 248.695312 L 51.625 249.546875 L 52.042969 250.414062 L 52.472656 251.28125 L 52.910156 252.152344 L 53.355469 253.011719 L 53.808594 253.859375 L 54.265625 254.683594 L 54.726562 255.484375 L 55.1875 256.253906 L 55.648438 256.984375 L 56.105469 257.671875 L 56.5625 258.308594 L 57.015625 258.898438 L 57.464844 259.429688 L 57.910156 259.898438 L 58.347656 260.308594 L 58.78125 260.648438 L 59.207031 260.921875 L 59.628906 261.121094 L 60.042969 261.25 L 60.457031 261.304688 L 60.867188 261.28125 L 61.273438 261.183594 L 61.675781 261.003906 L 62.082031 260.75 L 62.492188 260.414062 L 62.902344 260 L 63.320312 259.511719 L 63.746094 258.941406 L 64.179688 258.289062 L 64.628906 257.566406 L 65.097656 256.761719 L 65.183594 256.605469 L 65.695312 255.675781 L 66.238281 254.632812 L 66.820312 253.457031 L 67.453125 252.125 L 68.140625 250.609375 L 68.886719 248.90625 L 69.699219 246.988281 L 70.585938 244.851562 L 71.539062 242.484375 L 72.574219 239.882812 L 73.679688 237.039062 L 74.867188 233.953125 L 76.132812 230.628906 L 77.472656 227.0625 L 78.890625 223.269531 L 80.378906 219.25 L 81.9375 215.023438 L 83.558594 210.59375 L 85.242188 205.980469 L 86.984375 201.199219 L 88.773438 196.273438 L 90.605469 191.214844 L 92.476562 186.054688 L 94.375 180.808594 L 96.296875 175.503906 L 98.234375 170.164062 L 100.175781 164.816406 L 102.117188 159.484375 L 104.050781 154.195312 L 105.96875 148.96875 L 107.863281 143.835938 L 109.722656 138.8125 L 111.550781 133.929688 L 113.332031 129.203125 L 115.0625 124.648438 L 116.738281 120.292969 L 118.355469 116.144531 L 119.910156 112.222656 L 121.398438 108.535156 L 122.816406 105.09375 L 124.167969 101.902344 L 125.445312 98.972656 L 126.652344 96.300781 L 127.789062 93.886719 L 128.859375 91.730469 L 129.863281 89.828125 L 130.804688 88.167969 L 131.691406 86.746094 L 132.523438 85.546875 L 133.3125 84.554688 L 134.0625 83.753906 L 134.78125 83.125 L 135.480469 82.644531 L 135.609375 82.570312 L 136.296875 82.238281 L 136.984375 82.039062 L 137.679688 81.988281 L 138.390625 82.09375 L 139.121094 82.371094 L 139.871094 82.824219 L 140.652344 83.464844 L 141.464844 84.292969 L 142.3125 85.316406 L 143.199219 86.535156 L 144.121094 87.953125 L 145.085938 89.570312 L 146.089844 91.378906 L 147.136719 93.378906 L 148.21875 95.5625 L 149.34375 97.925781 L 150.503906 100.457031 L 151.699219 103.144531 L 152.929688 105.984375 L 154.1875 108.953125 L 155.46875 112.042969 L 156.777344 115.238281 L 158.101562 118.523438 L 159.4375 121.882812 L 160.789062 125.296875 L 162.140625 128.746094 L 163.492188 132.214844 L 164.839844 135.683594 L 166.179688 139.136719 L 167.503906 142.554688 L 168.808594 145.921875 L 170.09375 149.222656 L 171.347656 152.4375 L 172.570312 155.554688 L 173.757812 158.554688 L 174.90625 161.433594 L 176.011719 164.175781 L 177.078125 166.773438 L 178.09375 169.214844 L 179.066406 171.5 L 179.988281 173.617188 L 180.859375 175.566406 L 181.683594 177.347656 L 182.460938 178.957031 L 183.1875 180.398438 L 183.871094 181.679688 L 184.507812 182.804688 L 185.109375 183.777344 L 185.667969 184.609375 L 186.195312 185.3125 L 186.691406 185.898438 L 187.167969 186.382812 L 187.621094 186.78125 L 187.703125 186.847656 L 188.144531 187.167969 L 188.582031 187.417969 L 189.011719 187.597656 L 189.445312 187.699219 L 189.882812 187.71875 L 190.324219 187.652344 L 190.773438 187.496094 L 191.234375 187.253906 L 191.703125 186.917969 L 192.1875 186.488281 L 192.6875 185.96875 L 193.199219 185.355469 L 193.726562 184.65625 L 194.269531 183.863281 L 194.828125 182.988281 L 195.402344 182.03125 L 195.988281 180.996094 L 196.589844 179.890625 L 197.203125 178.714844 L 197.828125 177.476562 L 198.464844 176.183594 L 199.109375 174.839844 L 199.757812 173.457031 L 200.414062 172.039062 L 201.074219 170.597656 L 201.734375 169.136719 L 202.394531 167.664062 L 203.050781 166.191406 L 203.703125 164.722656 L 204.347656 163.269531 L 204.980469 161.839844 L 205.605469 160.4375 L 206.21875 159.074219 L 206.820312 157.753906 L 207.402344 156.480469 L 207.96875 155.261719 L 208.515625 154.105469 L 209.042969 153.011719 L 209.550781 151.984375 L 210.039062 151.03125 L 210.507812 150.148438 L 210.953125 149.339844 L 211.378906 148.609375 L 211.78125 147.949219 L 212.164062 147.367188 L 212.53125 146.855469 L 212.875 146.417969 L 213.207031 146.042969 L 213.519531 145.730469 L 213.820312 145.476562 L 214.109375 145.277344 L 214.390625 145.121094 L 214.667969 145.003906 L 214.714844 144.988281 L 214.988281 144.90625 L 215.257812 144.863281 L 215.53125 144.859375 L 215.8125 144.902344 L 216.097656 144.996094 L 216.390625 145.148438 L 216.691406 145.355469 L 217.003906 145.625 L 217.328125 145.960938 L 217.664062 146.359375 L 218.015625 146.824219 L 218.378906 147.351562 L 218.753906 147.945312 L 219.144531 148.601562 L 219.550781 149.320312 L 219.964844 150.097656 L 220.394531 150.929688 L 220.835938 151.816406 L 221.289062 152.746094 L 221.753906 153.722656 L 222.226562 154.734375 L 222.707031 155.773438 L 223.195312 156.839844 L 223.691406 157.925781 L 224.1875 159.023438 L 224.691406 160.125 L 225.195312 161.222656 L 225.695312 162.308594 L 226.199219 163.378906 L 226.699219 164.425781 L 227.195312 165.4375 L 227.683594 166.414062 L 228.167969 167.34375 L 228.644531 168.222656 L 229.109375 169.042969 L 229.570312 169.800781 L 230.015625 170.488281 L 230.453125 171.105469 L 230.878906 171.644531 L 231.292969 172.101562 L 231.695312 172.476562 L 232.089844 172.765625 L 232.46875 172.96875 L 232.839844 173.078125 L 233.199219 173.101562 L 233.550781 173.03125 L 233.894531 172.871094 L 234.230469 172.621094 L 234.5625 172.285156 L 234.890625 171.859375 L 235.21875 171.347656 L 235.550781 170.753906 L 235.882812 170.082031 L 235.945312 169.953125 L 236.285156 169.183594 L 236.640625 168.3125 L 237.011719 167.316406 L 237.402344 166.164062 L 237.816406 164.847656 L 238.261719 163.34375 L 238.730469 161.640625 L 239.234375 159.726562 L 239.769531 157.59375 L 240.34375 155.234375 L 240.949219 152.644531 L 241.589844 149.824219 L 242.269531 146.773438 L 242.980469 143.496094 L 243.730469 140 L 244.515625 136.292969 L 245.328125 132.382812 L 246.175781 128.28125 L 247.050781 124.007812 L 247.949219 119.578125 L 248.875 115.007812 L 249.820312 110.316406 L 250.785156 105.53125 L 251.761719 100.667969 L 252.75 95.753906 L 253.746094 90.8125 L 254.746094 85.867188 L 255.75 80.941406 L 256.746094 76.066406 L 257.738281 71.261719 L 258.71875 66.550781 L 259.6875 61.957031 L 260.640625 57.503906 L 261.574219 53.210938 L 262.488281 49.101562 L 263.375 45.1875 L 264.238281 41.488281 L 265.074219 38.019531 L 265.878906 34.789062 L 266.65625 31.8125 L 267.40625 29.089844 L 268.121094 26.632812 L 268.808594 24.445312 L 269.46875 22.527344 L 270.097656 20.875 L 270.703125 19.484375 L 271.285156 18.359375 L 271.84375 17.480469 L 272.382812 16.84375 L 272.910156 16.433594 L 273.425781 16.238281 L 273.933594 16.242188 L 274.4375 16.421875 L 274.53125 16.472656 L 275.042969 16.84375 L 275.570312 17.398438 L 276.113281 18.171875 L 276.679688 19.179688 L 277.277344 20.453125 L 277.902344 22.007812 L 278.570312 23.859375 L 279.273438 26.023438 L 280.019531 28.503906 L 280.804688 31.316406 L 281.640625 34.457031 L 282.519531 37.929688 L 283.445312 41.730469 L 284.414062 45.851562 L 285.429688 50.289062 L 286.484375 55.023438 L 287.585938 60.046875 L 288.722656 65.339844 L 289.898438 70.882812 L 291.109375 76.652344 L 292.347656 82.625 L 293.609375 88.769531 L 294.898438 95.0625 L 296.203125 101.472656 L 297.523438 107.964844 L 298.851562 114.511719 L 300.183594 121.078125 L 301.515625 127.636719 L 302.839844 134.144531 L 304.15625 140.578125 L 305.460938 146.902344 L 306.746094 153.089844 L 308.007812 159.109375 L 309.242188 164.933594 L 310.449219 170.539062 L 311.625 175.898438 L 312.765625 181 L 313.867188 185.816406 L 314.929688 190.339844 L 315.953125 194.550781 L 316.933594 198.449219 L 317.875 202.019531 L 318.773438 205.265625 L 319.632812 208.183594 L 320.457031 210.777344 L 321.242188 213.050781 L 321.992188 215.019531 L 322.714844 216.691406 L 323.410156 218.085938 L 324.082031 219.21875 L 324.742188 220.113281 L 325.386719 220.792969 L 326.027344 221.289062 L 326.144531 221.363281 L 326.789062 221.675781 L 327.449219 221.824219 L 328.132812 221.792969 L 328.84375 221.558594 L 329.59375 221.109375 L 330.382812 220.433594 L 331.21875 219.527344 L 332.105469 218.375 L 333.050781 216.976562 L 334.046875 215.324219 L 335.105469 213.417969 L 336.222656 211.261719 L 337.398438 208.855469 L 338.636719 206.203125 L 339.929688 203.316406 L 341.28125 200.199219 L 342.6875 196.867188 L 344.140625 193.332031 L 345.644531 189.605469 L 347.191406 185.710938 L 348.773438 181.660156 L 350.390625 177.476562 L 352.035156 173.179688 L 353.703125 168.789062 L 355.382812 164.332031 L 357.070312 159.828125 L 358.761719 155.300781 L 360.449219 150.777344 L 362.125 146.28125 L 363.785156 141.828125 L 365.417969 137.449219 L 367.023438 133.160156 L 368.589844 128.988281 L 370.121094 124.945312 L 371.601562 121.054688 L 373.03125 117.328125 L 374.410156 113.785156 L 375.726562 110.4375 L 376.984375 107.292969 L 378.179688 104.359375 L 379.3125 101.648438 L 380.378906 99.164062 L 381.378906 96.902344 L 382.316406 94.867188 L 383.1875 93.054688 L 384 91.464844 L 384.75 90.085938 L 385.449219 88.90625 L 386.09375 87.921875 L 386.695312 87.109375 L 387.253906 86.460938 L 387.78125 85.953125 L 388.28125 85.566406 L 388.371094 85.503906 L 388.851562 85.234375 L 389.320312 85.066406 L 389.78125 85.015625 L 390.238281 85.085938 L 390.699219 85.292969 L 391.160156 85.640625 L 391.632812 86.136719 L 392.109375 86.785156 L 392.601562 87.589844 L 393.101562 88.554688 L 393.621094 89.679688 L 394.15625 90.96875 L 394.707031 92.417969 L 395.277344 94.03125 L 395.863281 95.800781 L 396.464844 97.71875 L 397.085938 99.789062 L 397.722656 101.996094 L 398.371094 104.332031 L 399.035156 106.789062 L 399.710938 109.359375 L 400.398438 112.019531 L 401.089844 114.765625 L 401.785156 117.578125 L 402.484375 120.4375 L 403.179688 123.328125 L 403.867188 126.234375 L 404.546875 129.136719 L 405.214844 132.015625 L 405.871094 134.855469 L 406.503906 137.628906 L 407.113281 140.328125 L 407.699219 142.929688 L 408.257812 145.421875 L 408.78125 147.789062 L 409.277344 150.015625 L 410.15625 154.019531 L 410.539062 155.777344 L 410.886719 157.371094 L 411.195312 158.789062 L 411.464844 160.039062 L 411.699219 161.125 L 411.894531 162.042969 L 412.058594 162.808594 L 412.191406 163.429688 L 412.296875 163.910156 L 412.371094 164.269531 L 412.425781 164.523438 L 412.460938 164.683594 L 412.480469 164.773438 L 412.488281 164.808594 L 412.488281 164.816406 "/>
<path style="fill:none;stroke-width:1.066978;stroke-linecap:butt;stroke-linejoin:round;stroke:rgb(0%,0%,0%);stroke-opacity:1;stroke-miterlimit:1;" d="M 39.140625 272.03125 L 39.144531 272.039062 L 39.152344 272.066406 L 39.167969 272.113281 L 39.195312 272.183594 L 39.234375 272.292969 L 39.289062 272.4375 L 39.359375 272.625 L 39.445312 272.859375 L 39.550781 273.140625 L 39.675781 273.46875 L 39.820312 273.855469 L 39.984375 274.292969 L 40.175781 274.78125 L 40.382812 275.328125 L 40.617188 275.921875 L 40.871094 276.566406 L 41.148438 277.257812 L 41.441406 277.992188 L 41.757812 278.765625 L 42.09375 279.574219 L 42.445312 280.414062 L 42.816406 281.273438 L 43.199219 282.15625 L 43.59375 283.046875 L 44.003906 283.945312 L 44.417969 284.839844 L 44.84375 285.730469 L 45.277344 286.605469 L 45.714844 287.457031 L 46.15625 288.285156 L 46.597656 289.078125 L 47.039062 289.832031 L 47.480469 290.546875 L 47.921875 291.207031 L 48.359375 291.816406 L 48.792969 292.371094 L 49.222656 292.859375 L 49.648438 293.285156 L 50.070312 293.644531 L 50.488281 293.929688 L 50.902344 294.144531 L 51.316406 294.285156 L 51.722656 294.347656 L 52.128906 294.332031 L 52.535156 294.242188 L 52.9375 294.070312 L 53.347656 293.816406 L 53.757812 293.484375 L 54.171875 293.070312 L 54.597656 292.578125 L 55.03125 292.003906 L 55.476562 291.351562 L 55.9375 290.617188 L 56.414062 289.808594 L 56.503906 289.652344 L 57.03125 288.710938 L 57.589844 287.660156 L 58.191406 286.46875 L 58.84375 285.121094 L 59.554688 283.589844 L 60.332031 281.863281 L 61.175781 279.925781 L 62.09375 277.765625 L 63.089844 275.367188 L 64.167969 272.734375 L 65.324219 269.855469 L 66.5625 266.730469 L 67.882812 263.363281 L 69.285156 259.753906 L 70.765625 255.910156 L 72.324219 251.84375 L 73.953125 247.558594 L 75.652344 243.074219 L 77.417969 238.402344 L 79.238281 233.558594 L 81.113281 228.566406 L 83.03125 223.445312 L 84.988281 218.21875 L 86.980469 212.90625 L 88.992188 207.53125 L 91.019531 202.125 L 93.054688 196.707031 L 95.085938 191.304688 L 97.109375 185.945312 L 99.117188 180.652344 L 101.097656 175.453125 L 103.046875 170.367188 L 104.953125 165.417969 L 106.8125 160.628906 L 108.621094 156.019531 L 110.371094 151.605469 L 112.058594 147.40625 L 113.679688 143.433594 L 115.226562 139.699219 L 116.703125 136.210938 L 118.105469 132.980469 L 119.429688 130.011719 L 120.683594 127.304688 L 121.859375 124.859375 L 122.960938 122.679688 L 123.992188 120.75 L 124.960938 119.074219 L 125.863281 117.632812 L 126.714844 116.417969 L 127.511719 115.414062 L 128.269531 114.605469 L 128.996094 113.96875 L 129.695312 113.480469 L 129.824219 113.40625 L 130.511719 113.070312 L 131.195312 112.871094 L 131.882812 112.820312 L 132.582031 112.929688 L 133.296875 113.207031 L 134.03125 113.667969 L 134.789062 114.316406 L 135.574219 115.15625 L 136.386719 116.195312 L 137.234375 117.433594 L 138.117188 118.871094 L 139.035156 120.507812 L 139.988281 122.339844 L 140.976562 124.367188 L 142 126.582031 L 143.058594 128.976562 L 144.152344 131.539062 L 145.273438 134.265625 L 146.425781 137.140625 L 147.605469 140.148438 L 148.804688 143.28125 L 150.027344 146.519531 L 151.265625 149.847656 L 152.515625 153.25 L 153.773438 156.707031 L 155.035156 160.203125 L 156.296875 163.71875 L 157.550781 167.234375 L 158.800781 170.734375 L 160.035156 174.199219 L 161.25 177.609375 L 162.445312 180.953125 L 163.617188 184.210938 L 164.753906 187.371094 L 165.863281 190.414062 L 166.9375 193.332031 L 167.972656 196.113281 L 168.964844 198.746094 L 169.917969 201.222656 L 170.828125 203.539062 L 171.691406 205.6875 L 172.511719 207.664062 L 173.289062 209.472656 L 174.019531 211.109375 L 174.707031 212.574219 L 175.351562 213.875 L 175.960938 215.019531 L 176.527344 216.007812 L 177.0625 216.859375 L 177.570312 217.578125 L 178.046875 218.175781 L 178.503906 218.675781 L 178.945312 219.085938 L 179.023438 219.15625 L 179.453125 219.488281 L 179.878906 219.75 L 180.300781 219.941406 L 180.722656 220.054688 L 181.152344 220.085938 L 181.589844 220.03125 L 182.035156 219.890625 L 182.492188 219.660156 L 182.960938 219.339844 L 183.445312 218.925781 L 183.945312 218.417969 L 184.460938 217.824219 L 184.992188 217.136719 L 185.542969 216.363281 L 186.109375 215.503906 L 186.691406 214.566406 L 187.289062 213.546875 L 187.898438 212.457031 L 188.523438 211.300781 L 189.164062 210.082031 L 189.8125 208.808594 L 190.46875 207.488281 L 191.136719 206.125 L 191.804688 204.726562 L 192.480469 203.304688 L 193.15625 201.863281 L 193.835938 200.414062 L 194.507812 198.960938 L 195.175781 197.511719 L 195.839844 196.078125 L 196.492188 194.667969 L 197.132812 193.285156 L 197.765625 191.9375 L 198.378906 190.632812 L 198.980469 189.378906 L 199.5625 188.175781 L 200.125 187.035156 L 200.667969 185.953125 L 201.191406 184.941406 L 201.695312 184 L 202.175781 183.128906 L 202.632812 182.332031 L 203.070312 181.609375 L 203.488281 180.960938 L 203.882812 180.386719 L 204.257812 179.882812 L 204.617188 179.445312 L 204.957031 179.078125 L 205.28125 178.769531 L 205.59375 178.519531 L 205.890625 178.320312 L 206.183594 178.164062 L 206.46875 178.050781 L 206.519531 178.03125 L 206.804688 177.949219 L 207.085938 177.902344 L 207.371094 177.890625 L 207.664062 177.921875 L 207.964844 177.996094 L 208.273438 178.117188 L 208.59375 178.285156 L 208.925781 178.507812 L 209.269531 178.78125 L 209.628906 179.105469 L 210.003906 179.484375 L 210.390625 179.917969 L 210.796875 180.40625 L 211.214844 180.945312 L 211.652344 181.53125 L 212.101562 182.167969 L 212.566406 182.851562 L 213.042969 183.578125 L 213.53125 184.339844 L 214.035156 185.140625 L 214.546875 185.972656 L 215.066406 186.828125 L 215.597656 187.710938 L 216.132812 188.609375 L 216.671875 189.515625 L 217.214844 190.433594 L 217.761719 191.351562 L 218.308594 192.265625 L 218.851562 193.171875 L 219.390625 194.058594 L 219.929688 194.929688 L 220.457031 195.773438 L 220.980469 196.589844 L 221.492188 197.367188 L 221.996094 198.109375 L 222.492188 198.808594 L 222.972656 199.460938 L 223.441406 200.0625 L 223.894531 200.613281 L 224.335938 201.105469 L 224.765625 201.542969 L 225.183594 201.925781 L 225.585938 202.246094 L 225.976562 202.507812 L 226.355469 202.710938 L 226.722656 202.851562 L 227.078125 202.9375 L 227.429688 202.964844 L 227.773438 202.933594 L 228.113281 202.851562 L 228.449219 202.71875 L 228.785156 202.539062 L 229.125 202.316406 L 229.1875 202.269531 L 229.535156 201.996094 L 229.890625 201.667969 L 230.265625 201.277344 L 230.660156 200.8125 L 231.074219 200.261719 L 231.519531 199.621094 L 231.988281 198.886719 L 232.488281 198.046875 L 233.023438 197.097656 L 233.589844 196.042969 L 234.1875 194.875 L 234.824219 193.597656 L 235.496094 192.207031 L 236.199219 190.707031 L 236.9375 189.101562 L 237.710938 187.394531 L 238.511719 185.589844 L 239.34375 183.695312 L 240.207031 181.714844 L 241.09375 179.660156 L 242 177.539062 L 242.929688 175.359375 L 243.878906 173.132812 L 244.839844 170.871094 L 245.808594 168.585938 L 246.789062 166.289062 L 247.773438 163.988281 L 248.753906 161.699219 L 249.734375 159.433594 L 250.710938 157.203125 L 251.675781 155.019531 L 252.625 152.894531 L 253.5625 150.835938 L 254.480469 148.855469 L 255.378906 146.964844 L 256.25 145.167969 L 257.101562 143.476562 L 257.921875 141.898438 L 258.71875 140.4375 L 259.484375 139.097656 L 260.222656 137.882812 L 260.929688 136.800781 L 261.609375 135.847656 L 262.261719 135.027344 L 262.886719 134.335938 L 263.484375 133.777344 L 264.058594 133.347656 L 264.617188 133.042969 L 265.152344 132.855469 L 265.675781 132.785156 L 266.191406 132.820312 L 266.695312 132.957031 L 267.203125 133.183594 L 267.296875 133.234375 L 267.808594 133.566406 L 268.335938 133.996094 L 268.878906 134.542969 L 269.449219 135.226562 L 270.046875 136.0625 L 270.679688 137.058594 L 271.351562 138.222656 L 272.058594 139.570312 L 272.8125 141.105469 L 273.609375 142.828125 L 274.449219 144.746094 L 275.339844 146.855469 L 276.277344 149.160156 L 277.257812 151.652344 L 278.285156 154.324219 L 279.359375 157.179688 L 280.472656 160.199219 L 281.628906 163.375 L 282.820312 166.695312 L 284.046875 170.152344 L 285.300781 173.722656 L 286.585938 177.394531 L 287.890625 181.148438 L 289.21875 184.972656 L 290.554688 188.839844 L 291.902344 192.734375 L 293.253906 196.636719 L 294.605469 200.527344 L 295.953125 204.382812 L 297.289062 208.191406 L 298.609375 211.925781 L 299.910156 215.570312 L 301.191406 219.109375 L 302.441406 222.527344 L 303.664062 225.804688 L 304.851562 228.925781 L 306.003906 231.886719 L 307.117188 234.667969 L 308.191406 237.261719 L 309.222656 239.664062 L 310.210938 241.863281 L 311.15625 243.859375 L 312.0625 245.652344 L 312.925781 247.234375 L 313.75 248.609375 L 314.535156 249.78125 L 315.285156 250.757812 L 316.003906 251.539062 L 316.695312 252.140625 L 317.359375 252.566406 L 318.007812 252.835938 L 318.644531 252.957031 L 319.277344 252.949219 L 319.394531 252.9375 L 320.027344 252.789062 L 320.675781 252.515625 L 321.339844 252.09375 L 322.035156 251.507812 L 322.765625 250.746094 L 323.535156 249.789062 L 324.347656 248.628906 L 325.207031 247.261719 L 326.121094 245.679688 L 327.085938 243.875 L 328.109375 241.847656 L 329.191406 239.601562 L 330.324219 237.132812 L 331.519531 234.449219 L 332.765625 231.554688 L 334.070312 228.457031 L 335.421875 225.167969 L 336.824219 221.699219 L 338.273438 218.0625 L 339.761719 214.273438 L 341.285156 210.351562 L 342.839844 206.308594 L 344.421875 202.167969 L 346.023438 197.945312 L 347.640625 193.667969 L 349.265625 189.351562 L 350.890625 185.015625 L 352.511719 180.691406 L 354.121094 176.390625 L 355.714844 172.140625 L 357.28125 167.957031 L 358.824219 163.863281 L 360.328125 159.878906 L 361.796875 156.023438 L 363.214844 152.304688 L 364.589844 148.746094 L 365.910156 145.359375 L 367.171875 142.152344 L 368.378906 139.140625 L 369.523438 136.324219 L 370.605469 133.71875 L 371.621094 131.324219 L 372.578125 129.140625 L 373.472656 127.167969 L 374.304688 125.402344 L 375.074219 123.847656 L 375.789062 122.488281 L 376.449219 121.320312 L 377.0625 120.332031 L 377.628906 119.511719 L 378.15625 118.839844 L 378.648438 118.300781 L 379.117188 117.878906 L 379.203125 117.8125 L 379.648438 117.503906 L 380.082031 117.292969 L 380.507812 117.191406 L 380.929688 117.207031 L 381.347656 117.347656 L 381.769531 117.621094 L 382.191406 118.035156 L 382.621094 118.589844 L 383.058594 119.292969 L 383.503906 120.144531 L 383.960938 121.144531 L 384.425781 122.300781 L 384.910156 123.601562 L 385.402344 125.054688 L 385.910156 126.65625 L 386.429688 128.394531 L 386.960938 130.273438 L 387.507812 132.28125 L 388.0625 134.40625 L 388.628906 136.648438 L 389.207031 138.988281 L 389.785156 141.421875 L 390.375 143.925781 L 390.960938 146.496094 L 391.550781 149.113281 L 392.136719 151.757812 L 392.71875 154.417969 L 393.292969 157.074219 L 393.855469 159.710938 L 394.402344 162.308594 L 394.9375 164.851562 L 395.449219 167.324219 L 395.941406 169.707031 L 396.40625 171.992188 L 396.847656 174.160156 L 397.261719 176.203125 L 397.644531 178.113281 L 397.996094 179.875 L 398.320312 181.488281 L 398.609375 182.949219 L 398.867188 184.25 L 399.089844 185.398438 L 399.285156 186.390625 L 399.453125 187.238281 L 399.589844 187.941406 L 399.699219 188.507812 L 399.785156 188.949219 L 399.847656 189.28125 L 399.894531 189.511719 L 399.921875 189.660156 L 399.9375 189.742188 L 399.945312 189.777344 L 399.945312 189.78125 "/>
</g>
</svg>
